<?xml version="1.0" standalone="no"?>
<!DOCTYPE svg PUBLIC "-//W3C//DTD SVG 20010904//EN"
 "http://www.w3.org/TR/2001/REC-SVG-20010904/DTD/svg10.dtd">
<svg version="1.0" xmlns="http://www.w3.org/2000/svg"
 width="280.000000pt" height="280.000000pt" viewBox="0 0 280.000000 280.000000"
 preserveAspectRatio="xMidYMid meet">
<metadata>
Created by potrace 1.14, written by Peter Selinger 2001-2017
</metadata>
<g transform="translate(0.000000,280.000000) scale(0.100000,-0.100000)"
fill="#000000" stroke="none">
<path d="M426 2383 c-1 -1 -59 -3 -129 -4 l-127 -1 0 -218 0 -219 74 1 c40 0
79 -2 85 -6 6 -4 11 -4 11 1 0 4 57 7 127 6 69 -2 131 1 137 6 15 12 15 406 1
420 -8 8 -172 21 -179 14z"/>
<path d="M670 2168 c0 -156 3 -219 12 -224 21 -13 412 -10 426 3 9 8 12 65 12
213 0 148 -3 205 -12 213 -9 9 -76 12 -226 12 l-212 0 0 -217z"/>
<path d="M1180 2376 c-16 -16 -13 -421 3 -433 15 -11 407 -11 425 0 9 6 12 60
12 215 0 114 -4 212 -8 218 -9 13 -419 13 -432 0z"/>
<path d="M1682 2373 c-17 -18 -17 -410 1 -427 8 -8 71 -12 220 -11 199 0 207
0 214 20 9 27 10 403 1 418 -10 17 -420 17 -436 0z"/>
<path d="M2181 2373 c-16 -18 -15 -410 2 -426 8 -9 70 -12 215 -12 177 0 205
2 216 16 17 24 15 404 -2 421 -18 18 -414 19 -431 1z"/>
<path d="M170 1665 l-1 -226 226 1 225 1 0 210 c0 169 -3 213 -14 225 -12 11
-56 14 -225 14 l-210 0 -1 -225z"/>
<path d="M677 1883 c-4 -3 -7 -105 -7 -225 l0 -218 223 2 222 3 3 213 c2 147
-1 212 -8 212 -6 0 -8 5 -5 10 7 11 -417 15 -428 3z"/>
<path d="M1182 1878 c-9 -9 -12 -73 -12 -225 l0 -213 225 0 225 0 0 209 c0
115 -3 216 -6 225 -5 14 -34 16 -213 16 -148 0 -210 -3 -219 -12z"/>
<path d="M1670 1666 l-1 -225 228 2 228 2 0 213 c0 116 -3 212 -8 212 -4 0 -5
5 -2 10 4 7 -71 10 -219 10 l-225 0 -1 -224z"/>
<path d="M2183 1875 c-10 -10 -13 -70 -13 -225 l0 -210 228 0 227 0 0 215 c0
118 -4 215 -8 215 -5 0 -5 5 -2 10 4 7 -67 10 -207 10 -171 -1 -215 -4 -225
-15z"/>
<path d="M174 1360 c-10 -21 -12 -403 -3 -415 5 -7 84 -10 221 -9 117 1 216 2
221 3 4 0 7 95 7 210 0 157 -3 212 -12 218 -7 4 -106 8 -220 8 -176 0 -209 -2
-214 -15z"/>
<path d="M682 1368 c-9 -9 -12 -72 -12 -223 l0 -210 223 0 222 0 3 209 c2 145
-1 213 -9 222 -15 19 -409 20 -427 2z"/>
<path d="M1180 1366 c-6 -6 -10 -97 -10 -218 l0 -208 80 -1 c44 0 136 0 205 0
69 0 134 0 145 0 19 1 20 8 20 216 0 165 -3 215 -12 216 -69 7 -421 2 -428 -5z"/>
<path d="M1690 1370 c0 -6 -5 -8 -10 -5 -7 4 -10 -65 -8 -212 l3 -218 223 -2
222 -2 0 52 c1 136 1 307 1 349 l-1 47 -215 1 c-149 0 -215 -3 -215 -10z"/>
<path d="M2181 1363 c-7 -8 -11 -76 -11 -217 0 -170 2 -205 15 -209 18 -7 394
-8 421 -1 18 5 19 15 19 207 0 114 -5 209 -10 217 -8 13 -42 16 -216 15 -150
0 -209 -3 -218 -12z"/>
<path d="M175 838 c-3 -13 -4 -111 -3 -218 l3 -195 223 -3 222 -2 0 208 c0
148 -3 211 -12 220 -9 9 -72 12 -220 12 -207 0 -208 0 -213 -22z"/>
<path d="M683 845 c-10 -10 -13 -69 -13 -220 l0 -205 225 0 225 0 0 216 c0
141 -3 213 -10 209 -5 -3 -10 -1 -10 4 0 8 -66 11 -202 11 -163 -1 -205 -4
-215 -15z"/>
<path d="M1182 848 c-9 -9 -12 -72 -12 -220 l0 -208 225 0 225 0 0 216 c0 141
-3 213 -10 209 -5 -3 -10 -1 -10 4 0 16 -402 15 -418 -1z"/>
<path d="M2192 843 c-5 -10 -8 -49 -7 -88 2 -38 3 -130 4 -202 l1 -133 210 0
210 0 0 210 0 210 -207 0 c-138 0 -203 4 -193 10 9 6 10 10 3 10 -7 0 -16 -8
-21 -17z"/>
<path d="M1685 808 c1 -18 -3 -36 -9 -40 -7 -5 -7 -8 2 -8 8 0 10 -5 6 -12
-10 -16 -11 -89 -1 -95 4 -3 4 -10 -1 -16 -8 -11 -8 -25 -2 -44 7 -23 4 -79
-5 -85 -6 -5 -5 -8 3 -8 10 0 10 -5 1 -21 -8 -16 -8 -20 1 -14 9 6 9 3 1 -13
-6 -11 -11 -23 -11 -27 0 -3 100 -4 223 -3 l222 3 0 205 0 205 -216 3 -215 2
1 -32z"/>
</g>
</svg>
